<?xml version='1.0' encoding='utf-8'?>
<svg xmlns="http://www.w3.org/2000/svg" xmlns:xlink="http://www.w3.org/1999/xlink" id="Astonomical_coordinates" x="0px" y="0px" width="900" height="620" viewBox="0 0 620 425">

    <rect width="100%" height="100%" fill="#fff" stroke-width="0.2" stroke="#000"/>

  <g id="Comet_orbit_lower">
  	<defs>
  		<rect id="SVGID_1_" width="623.622" height="425.197"/>
  	</defs>
  	<clipPath id="SVGID_2_">
  		<use xlink:href="#SVGID_1_" overflow="visible"/>
  	</clipPath>
  	<g clip-path="url(#SVGID_2_)">

   			<path fill="none" stroke="#AE132E" stroke-width="0.5" stroke-dasharray="6.025,6.025" d="M391.691,152.694&#10;    &#9;&#9;&#9;&#9;c34.82,25.552,71.109,55.664,107.122,89.443c145.344,136.331,231.113,280.777,191.579,322.625&#10;    &#9;&#9;&#9;&#9;c-39.536,41.854-189.414-34.741-334.755-171.072c-30.207-28.333-57.842-57.019-82.312-85.058"/>
  	</g>
  </g>

  <g id="Earth_s_orbit">  	
  	<ellipse id="Reference_plane" opacity="0.02" fill="#BBC4E3" cx="342.831" cy="230.931" rx="246.258" ry="145.392"/>
    <ellipse id="Earth_orbit" fill="none" stroke="#364895" stroke-width="0.5" cx="342.831" cy="230.931" rx="246.258" ry="145.392"/>
  	<g id="direction">
  		<path fill="#FFFFFF" d="M493.572,345.939c-5.062,2.315-10.28,4.517-15.646,6.598"/>
  		<g>
  			<path fill="none" stroke="#364895" stroke-width="0" d="M487.115,348.795c-3.012,1.287-6.075,2.535-9.188,3.742"/>
  			<g>
  				<polygon fill="#364895" points="493.572,345.939 482.825,346.06 486.58,348.888 485.984,353.551 &#9;&#9;&#9;&#9;"/>
  			</g>
  		</g>
  	</g>
  	<text transform="matrix(1 0 0 1 525.9771 125.5752)"><tspan x="0" y="0" fill="#354795" font-family="'Arial'" font-size="10">EARTH’S</tspan>
    <tspan x="11" y="14" fill="#354795" font-family="'Arial'" font-size="10">      ORBIT</tspan></text>
  </g>

  <g id="Vernal_equinox">
  	<text transform="matrix(1 0 0 1 48.2354 252.0127)" fill="#0B7C31" font-family="'SegoeUISymbol'" font-size="16">♈︎</text>
  	<g>
  		<g>
  			<line fill="none" stroke="#0B7C31" stroke-width="1" x1="330.706" y1="220.054" x2="41.707" y2="263.237"/>
  			<g>
  				<path fill="#0B7C31" d="M43.482,262.971l2.7,3.24l-0.11,0.099l-6.155-1.439c-2.091-0.143-4.182-0.286-6.273-0.429&#10;  &#9;&#9;&#9;&#9;&#9;c1.958-0.748,3.916-1.496,5.874-2.244l5.466-3.176l0.13,0.043L43.482,262.971z"/>
  			</g>
  		</g>
  	</g>
  	<text transform="matrix(1 0 0 1 32.6362 283.7637)">
      <tspan x="0" y="0" fill="#097B30" font-family="'Arial'" font-size="10">VERNAL</tspan>
      <tspan x="5.202" y="13.2" fill="#097B30" font-family="'Arial'" font-size="10">POINT</tspan></text>
  </g>

    <g id="EarthGroup" transform="translate(96.8265054244782 237.5264155700885)">
        <line id="TiltAxis" fill="none" stroke="#800000" stroke-width="0.5" stroke-dasharray="8,3" x1="6.778734171729182" y1="-15.590021264547111" x2="-6.778734171729182" y2="15.590021264547111"/>

        <g transform="rotate(23.5)">
            <image overflow="visible" width="15" height="15" id="Earth2" transform="translate(-7.5, -7.5)"/>
        </g>
    </g>
	
  <g id="Inclination">
  	<path fill="none" stroke="#000000" stroke-linecap="round" stroke-linejoin="round" stroke-width="0.8" d="M306.011,311.441&#10;  &#9;&#9;c-26.558-3.693-50.566-11.288-70.196-21.704"/>
  	<g>
  		<g>
  			<path fill="none" stroke="#AD112D" stroke-width="0.8" d="M257.378,280.68&#10;  &#9;&#9;&#9;&#9;c5.387-1.603,11.404-1.682,17.33,0.117c13.274,4.027,21.695,16.136,20.728,28.54"/>
  			<g>
  				<polygon fill="#AD112D" points="260.545,282.727 258.326,280.395 258.464,277.179 252.93,282.42 &#9;&#9;&#9;&#9;"/>
  			</g>
  		</g>
  	</g>
  	<text transform="matrix(1 0 0 1 300.8594 298.3994)" fill="#AD112D" font-family="'Times New Roman'" font-style="italic" font-size="20">i</text>
  </g>

  <g id="Comet_orbit_1">
  	<g id="direction_1_">
  		<g>
  			<path fill="none" stroke="#AE132E" stroke-width="0" d="M199.279,200.549c-3.969-7.502-7.516-14.785-10.622-21.815"/>
  			<g>
  				<polygon fill="#AE132E" stroke-width="0" points="192.212,179.342 185.205,170.575 186.89,181.672 &#9;&#9;&#9;&#9;"/>
  			</g>
  		</g>
  	</g>

  	<path id="Comet_orbit" fill="#F3ABB7" opacity="0.06" stroke="none" stroke-width="0" d="M269.689,303.562&#10;  &#9;&#9;c-79.103-96.625-116.465-183.698-86.271-215.778c28.154-29.913,107.59-4.088,200.269,58.811"/>
  	<path id="Comet_orbit" fill="none" stroke="#AE132E" stroke-width="0.75" d="M269.689,303.562&#10;  &#9;&#9;c-79.103-96.625-116.465-183.698-86.271-215.778c28.154-29.913,107.59-4.088,200.269,58.811"/>
  	<text transform="matrix(1 0 0 1 132.2524 196.0762)"><tspan x="0" y="0" fill="#AD112D" font-family="'Arial'" font-size="10">ORBIT OF     </tspan><tspan x="18.337" y="13.2" fill="#AD112D" font-family="'Arial'" font-size="10">COMET   </tspan><tspan x="25.035" y="26.399" fill="#AD112D" font-family="'Arial'" font-size="10">HALLEY</tspan></text>
  </g>

<g id="True_anomaly">
	
		<line fill="none" stroke="#CB2C86" stroke-width="0.8" x1="330.705" y1="219.934" x2="241.881" y2="77.375"/>
	<g>
		<g>
			<path fill="none" stroke="#CC2D86" stroke-width="0.8" d="M287.698,177.046&#10;&#9;&#9;&#9;&#9;c2.044-2.044,4.428-3.64,7.084-4.804"/>
			<g>
				<polygon fill="#CC2D86" points="300.172,170.539 293.647,176.139 294.412,172.456 291.593,169.968 &#9;&#9;&#9;&#9;"/>
			</g>
		</g>
	</g>
	<text transform="matrix(1 0 0 1 279.4956 170.5391)" fill="#CD2C86" font-family="'SymbolMT'" font-size="24">ν</text>
</g>
<g id="Argument_of_periapsis">
	<g>
		<g>
			<path fill="none" stroke="#777676" stroke-width="0.8" d="M280.651,200.157&#10;&#9;&#9;&#9;&#9;c-0.602-7.09,0.541-13.509,3.585-18.645"/>
			<g>
				<polygon fill="#777676" points="287.698,177.046 285.549,185.372 284.07,181.914 280.334,181.485 &#9;&#9;&#9;&#9;"/>
			</g>
		</g>
	</g>
	<path fill="none" stroke="#777676" stroke-width="0.8" d="M308.43,250.289&#10;&#9;&#9;c-0.861-0.806-1.715-1.632-2.561-2.477c-9.334-9.335-16.296-19.697-20.542-29.756"/>
	<text transform="matrix(1 0 0 1 276.3369 215)" fill="#777676" font-family="'SymbolMT'" font-size="24">ω</text>
	
		<line fill="none" stroke="#777676" stroke-width="0.8" x1="330.705" y1="220.054" x2="191.48" y2="81.481"/>
	
		<circle id="node_1_" fill="#AFAFAF" stroke="#000000" stroke-width="0.5" cx="191.479" cy="81.481" r="2.834"/>
	<text transform="matrix(1 0 0 1 118.3462 73.5977)" font-family="'Arial'" font-size="10">PERIHELION</text>
</g>
<g id="Longitude_of_ascending_node">
	<line fill="none" stroke="#000000" x1="330.706" y1="220.054" x2="269.013" y2="303.886"/>
	<g>
		<g>
			<path fill="none" stroke="#000000" stroke-width="0.8" d="M275.025,252.395&#10;&#9;&#9;&#9;&#9;c6.308,2.517,13.37,4.611,21,6.192"/>
			<g>
				<polygon points="301.582,259.63 293.149,261.312 295.622,258.477 294.385,254.926 &#9;&#9;&#9;&#9;"/>
			</g>
		</g>
	</g>
	<path fill="none" stroke="#000000" stroke-width="0.8" d="M247.271,232.202&#10;&#9;&#9;c2.304,3.729,5.659,7.237,9.9,10.445"/>
	<text transform="matrix(1 0 0 1 257.7705 256.0127)" font-family="'Symbol'" font-size="20">Ω</text>
</g>

<g id="Descending_node">
	<path fill="none" stroke="#000000" stroke-width="0.35" stroke-linecap="round" stroke-linejoin="round" d="&#10;&#9;&#9;M355.768,142.567c20.041,1.564,38.8,5.522,55.418,11.371"/>
	<text transform="matrix(1 0 0 1 365.5591 121.4326)"><tspan x="0" y="0" font-family="'Arial'" font-size="10">DESCENDING</tspan><tspan x="20.78" y="13.2" font-family="'Arial'" font-size="10">NODE</tspan></text>
	
		<circle id="node_2_" fill="#FFFFFF" stroke="#000000" stroke-width="0.5" cx="383.686" cy="146.594" r="2.834"/>
</g>

<g id="Ascending_node">
	<circle id="node" cx="269.013" cy="303.307" r="2.835"/>
	<text transform="matrix(1 0 0 1 249.896 323.0996)" font-family="'SegoeUISymbol'" font-size="20">☊</text>
	<text transform="matrix(1 0 0 1 217.1968 339.0996)"><tspan x="0" y="0" font-family="'Arial'" font-size="10">ASCENDING</tspan><tspan x="16.809" y="13.2" font-family="'Arial'" font-size="10">NODE</tspan></text>
</g>

<g id="Sun_1_">
	<g id="Sun">
		
			<linearGradient id="SVGID_3_" gradientUnits="userSpaceOnUse" x1="306.7271" y1="249.0825" x2="326.564" y2="249.0825" gradientTransform="matrix(0.9488 0.3159 -0.3159 0.9488 108.9727 -116.3104)">
			<stop offset="0"/>
			<stop offset="0.0595"/>
			<stop offset="0.1303"/>
			<stop offset="0.2032"/>
			<stop offset="0.2809"/>
			<stop offset="0.6685"/>
			<stop offset="0.8876"/>
			<stop offset="1"/>
		</linearGradient>
		<circle fill="url(#SVGID_3_)" cx="330.705" cy="220.054" r="9.918"/>
		<g>
			<g>
				<path opacity="0.1034" fill="#F8E81D" d="M333.248,233.954c-0.366,0.569-0.734,1.139-1.103,1.709&#10;&#9;&#9;&#9;&#9;&#9;c0.184-0.281,0.368-0.561,0.551-0.841c-0.516,0.371-1.031,0.742-1.546,1.111c0.349-0.127,0.697-0.256,1.046-0.385&#10;&#9;&#9;&#9;&#9;&#9;c-2.843,0.889-4.898-0.039-7.471-1.109c-1.077-1.466-2.152-2.933-3.229-4.398c-0.12-3.222-1.46-5.989-4.019-8.301&#10;&#9;&#9;&#9;&#9;&#9;c0.627,1.575,1.255,3.152,1.884,4.728c2.272-2.7,3.791-5.755,4.556-9.164c-1.128,1.204-2.257,2.409-3.385,3.614&#10;&#9;&#9;&#9;&#9;&#9;c3.277-1.87,6.751-3.278,10.422-4.226c1.455,0.366,2.735,0.779,4.043,1.485c-0.286-0.156-0.572-0.313-0.859-0.469&#10;&#9;&#9;&#9;&#9;&#9;c1.572,1.491,3.691,2.353,5.062,4.068c-0.235-0.446-0.469-0.891-0.704-1.337c0.383,0.859,0.766,1.719,1.148,2.579&#10;&#9;&#9;&#9;&#9;&#9;c-0.171-0.522-0.343-1.044-0.515-1.565c0.359,1.145,0.72,2.289,1.08,3.434c-0.063-0.533-0.125-1.067-0.188-1.6&#10;&#9;&#9;&#9;&#9;&#9;c0.109,1.143,0.221,2.286,0.331,3.431c0.047-0.529,0.093-1.059,0.14-1.588c-0.099,2.376-0.573,4.677-1.422,6.903&#10;&#9;&#9;&#9;&#9;&#9;c-0.355,1.239-1.149,3.439,0.114,4.502c0.741,0.624,2.555,1.183,3.345,0.259c1.509-1.401,2.613-3.07,3.316-5.006&#10;&#9;&#9;&#9;&#9;&#9;c0.733-1.946,1.048-3.957,0.94-6.035c0.219-4.363-2.619-7.479-5.564-10.195c-1.059-0.821-2.18-1.538-3.363-2.151&#10;&#9;&#9;&#9;&#9;&#9;c-1.674-0.874-3.452-1.298-5.337-1.275c-1.028-0.263-2.063-0.364-3.104-0.304c-0.846,0.118-1.691,0.236-2.537,0.355&#10;&#9;&#9;&#9;&#9;&#9;c-1.836,2.932-3.921,5.686-6.25,8.263c1.05-1.089,2.101-2.18,3.151-3.269c-2.134,1.521-4.269,3.043-6.403,4.564&#10;&#9;&#9;&#9;&#9;&#9;c-1.752,3.522-1.939,7.066-0.561,10.628c0.406,1.114,0.81,2.229,1.214,3.343c2.047,2.226,4.5,3.774,7.359,4.644&#10;&#9;&#9;&#9;&#9;&#9;c1.042,0.252,2.085,0.504,3.127,0.756c1.399,0.186,2.8,0.23,4.203,0.136c1.145-0.278,2.265-0.631,3.359-1.062&#10;&#9;&#9;&#9;&#9;&#9;c1.357-0.532,2.432-1.405,3.224-2.622c0.852-0.972,1.456-3.121,0.223-4.125c-0.87-0.472-1.805-0.706-2.804-0.701&#10;&#9;&#9;&#9;&#9;&#9;C335.252,232.662,334.079,232.67,333.248,233.954z"/>
				<path opacity="0.1034" fill="#F8E81D" d="M327.279,227.748c-0.469,1.313-1.323,2.278-2.561,2.896&#10;&#9;&#9;&#9;&#9;&#9;c2.547-1.275,5.095-2.548,7.642-3.823c-2.677,0.696-5.355,1.393-8.032,2.089c1.629-0.03,3.26-0.063,4.889-0.094&#10;&#9;&#9;&#9;&#9;&#9;c-2.646-0.093-5.25-0.478-7.812-1.154c1.405,0.507,2.811,1.012,4.216,1.519c-1.858-0.917-3.715-1.832-5.573-2.748&#10;&#9;&#9;&#9;&#9;&#9;c1.103,0.733,2.207,1.467,3.31,2.199c-1.608-1.65-3.217-3.301-4.825-4.951c0.552,1.067,1.104,2.134,1.654,3.2&#10;&#9;&#9;&#9;&#9;&#9;c-0.388-1.198-0.777-2.398-1.166-3.599c0.046,0.446,0.091,0.892,0.136,1.337c0.417-3.263,0.833-6.525,1.25-9.789&#10;&#9;&#9;&#9;&#9;&#9;c-0.387,0.841-0.776,1.683-1.164,2.523c1.845-2.314,4.327-3.669,7.445-4.067c2.111-0.068,4.678,1.491,6.072,2.87&#10;&#9;&#9;&#9;&#9;&#9;c-0.196-0.331-0.395-0.662-0.591-0.994c0.475,0.836,0.948,1.672,1.423,2.508c-0.16-0.392-0.319-0.784-0.48-1.175&#10;&#9;&#9;&#9;&#9;&#9;c0.302,0.959,0.604,1.918,0.905,2.877c-0.114-0.447-0.23-0.896-0.346-1.344c0.2,0.887,0.402,1.773,0.604,2.659&#10;&#9;&#9;&#9;&#9;&#9;c-0.036-0.483-0.072-0.966-0.108-1.449c-0.021,0.938-0.041,1.875-0.063,2.814c0.044-0.515,0.089-1.028,0.133-1.543&#10;&#9;&#9;&#9;&#9;&#9;c-0.604,2.063-1.148,4.143-1.632,6.238c-0.332,1.297-1.02,4.056,0.332,5.137c0.922,0.739,2.557,0.881,3.379-0.118&#10;&#9;&#9;&#9;&#9;&#9;c1.4-1.424,2.501-3.053,3.303-4.885c0.746-1.776,1.063-3.624,0.949-5.543c-0.105-2.18-0.678-4.228-1.719-6.146&#10;&#9;&#9;&#9;&#9;&#9;c-0.197-0.331-0.395-0.662-0.592-0.994c-0.603-0.806-1.238-1.586-1.902-2.342c-1.62-1.342-3.416-2.382-5.388-3.121&#10;&#9;&#9;&#9;&#9;&#9;c-1.929-0.693-3.915-0.973-5.958-0.836c-1.146,0.332-2.283,0.695-3.409,1.088c-1.618,0.532-4.548,2.263-5.688,3.771&#10;&#9;&#9;&#9;&#9;&#9;c-1.063,1.405-1.719,3.241-2.299,4.865c-0.645,1.925-0.963,3.903-0.956,5.934c0.224,0.929,0.447,1.857,0.671,2.786&#10;&#9;&#9;&#9;&#9;&#9;c0.608,1.795,1.51,3.428,2.706,4.897c0.952,1.408,2.253,2.127,3.902,2.162c2.925,1.3,5.805,1.467,8.644,0.502&#10;&#9;&#9;&#9;&#9;&#9;c2.002-0.684,3.93-1.535,5.783-2.552c2.023-1.136,3.331-2.476,4.564-4.395c0.68-0.736,0.832-1.564,0.455-2.48&#10;&#9;&#9;&#9;&#9;&#9;c-0.448-0.883-1.173-1.308-2.176-1.275c-1.809,0.352-3.539,0.944-5.191,1.776C330.305,225.684,328.727,226.607,327.279,227.748z&#10;&#9;&#9;&#9;&#9;&#9;"/>
				<path opacity="0.1034" fill="#F8E81D" d="M325.541,218.73c-0.229,0.448-0.457,0.897-0.685,1.345&#10;&#9;&#9;&#9;&#9;&#9;c0.53-0.705,1.06-1.41,1.589-2.115c-0.27,0.242-0.541,0.486-0.813,0.729c0.317-0.156,0.635-0.313,0.954-0.469&#10;&#9;&#9;&#9;&#9;&#9;c-0.834,0.205-1.647,0.48-2.435,0.829c0.389-0.079,0.776-0.158,1.166-0.237c-2.646-0.785-6.464-3.91-7.578-4.628&#10;&#9;&#9;&#9;&#9;&#9;c1.499,1.311,2.997,2.623,4.494,3.935c-0.404-0.67-0.807-1.34-1.211-2.01c0.247,0.523,0.494,1.046,0.741,1.569&#10;&#9;&#9;&#9;&#9;&#9;c-0.442-1.1-0.883-2.199-1.323-3.299c0.109,0.534,0.218,1.068,0.328,1.604c-0.284-1.803-0.567-3.605-0.851-5.409&#10;&#9;&#9;&#9;&#9;&#9;c0.09,1.246,0.179,2.492,0.269,3.737c0.414-2.219,0.829-4.438,1.244-6.656c-0.515,1.038-1.031,2.075-1.546,3.113&#10;&#9;&#9;&#9;&#9;&#9;c2.653-2.634,5.307-5.267,7.96-7.9c-0.871,0.374-1.743,0.748-2.614,1.12c2.607-0.254,5.191-0.112,7.755,0.429&#10;&#9;&#9;&#9;&#9;&#9;c1.338,0.616,2.677,1.23,4.017,1.845c1.98,4.625,2.709,9.51,2.186,14.655c0.279-1.626,0.558-3.254,0.837-4.88&#10;&#9;&#9;&#9;&#9;&#9;c-1.043,2.14-2.088,4.279-3.132,6.419c0.789-1.293,1.578-2.584,2.367-3.877c1.295-1.444-11.18,10.606-6.178,6.948&#10;&#9;&#9;&#9;&#9;&#9;c0.766-0.559,2.035-1.221,2.605-1.993c0.396-0.202,0.794-0.406,1.192-0.609c1.893-1.415,3.685-2.95,5.375-4.604&#10;&#9;&#9;&#9;&#9;&#9;c-0.497-3.865-0.558-7.725-0.185-11.581c0.223-3.391-1.112-3.695-3.411-5.673c-1.454-1.249-3.843-1.553-5.809-1.874&#10;&#9;&#9;&#9;&#9;&#9;c-1.168-0.191-2.335-0.381-3.503-0.572c-1.142-0.272-2.293-0.374-3.456-0.304c-2.844,0.559-5.698,3.052-7.904,4.667&#10;&#9;&#9;&#9;&#9;&#9;c-2.54,1.862-3.47,5.085-4.312,7.91c-0.9,3.018,0.073,5.942,1.196,8.683c1.01,1.569,2.295,2.865,3.853,3.886&#10;&#9;&#9;&#9;&#9;&#9;c1.955,1.583,3.767,1.754,6.132,1.491c3.196-0.355,5.001-2.746,6.175-5.475c0.648-1.512-1.107-2.709-2.317-3.15&#10;&#9;&#9;&#9;&#9;&#9;C327.072,215.729,326.149,217.538,325.541,218.73z"/>
				<path opacity="0.1034" fill="#F8E81D" d="M332.882,225.968c-0.417,1.215-1.188,2.122-2.313,2.721&#10;&#9;&#9;&#9;&#9;&#9;c1.162-0.595,2.325-1.19,3.489-1.785c-1.237,0.486-2.475,0.97-3.713,1.456c1.438-0.392,2.875-0.785,4.313-1.177&#10;&#9;&#9;&#9;&#9;&#9;c-1.099,0.111-2.198,0.222-3.297,0.333c0.507,0.122,1.015,0.243,1.521,0.365c-2.192-0.548-4.337-1.242-6.437-2.079&#10;&#9;&#9;&#9;&#9;&#9;c1.102,0.548,2.204,1.095,3.305,1.642c-0.863-0.58-1.726-1.16-2.588-1.74c0.355,0.36,0.708,0.721,1.062,1.081&#10;&#9;&#9;&#9;&#9;&#9;c-0.644-0.748-1.286-1.494-1.93-2.241c0.275,0.429,0.551,0.856,0.826,1.284c-0.436-0.872-0.871-1.744-1.307-2.616&#10;&#9;&#9;&#9;&#9;&#9;c0.2,0.493,0.399,0.984,0.597,1.475c-0.606-1.592-1.212-3.183-1.819-4.775c0.335,1.194,0.67,2.388,1.005,3.582&#10;&#9;&#9;&#9;&#9;&#9;c-0.098-0.944-0.198-1.888-0.297-2.831c-0.03,0.537-0.061,1.074-0.09,1.611c0.141-0.948,0.284-1.895,0.426-2.842&#10;&#9;&#9;&#9;&#9;&#9;c-0.141,0.557-0.281,1.113-0.421,1.669c0.828-2.183,1.657-4.366,2.485-6.547c-0.791,1.14-1.581,2.282-2.372,3.424&#10;&#9;&#9;&#9;&#9;&#9;c1.225-1.399,2.45-2.799,3.675-4.198c-1.055,0.965-2.11,1.931-3.165,2.897c1.534-1.086,3.067-2.173,4.601-3.259&#10;&#9;&#9;&#9;&#9;&#9;c-1.307,0.778-2.612,1.557-3.917,2.335c1.852-0.867,3.704-1.734,5.557-2.601c-1.41,0.478-2.819,0.955-4.229,1.434&#10;&#9;&#9;&#9;&#9;&#9;c1.939-0.426,3.877-0.853,5.816-1.279c-1.49,0.178-2.981,0.357-4.474,0.536c2.437,0.226,4.871,0.451,7.306,0.677&#10;&#9;&#9;&#9;&#9;&#9;c-1.485-0.472-2.969-0.944-4.453-1.415c1.966,0.846,3.933,1.691,5.898,2.539c-1.271-0.761-2.543-1.522-3.813-2.284&#10;&#9;&#9;&#9;&#9;&#9;c1.599,1.196,3.197,2.392,4.796,3.588c-1.052-1.021-2.103-2.043-3.154-3.063c1.244,1.484,2.49,2.969,3.734,4.454&#10;&#9;&#9;&#9;&#9;&#9;c-0.826-1.258-1.654-2.515-2.48-3.772c0.905,1.848,1.812,3.696,2.717,5.543c-0.502-1.316-1.005-2.634-1.509-3.95&#10;&#9;&#9;&#9;&#9;&#9;c0.454,1.881,0.907,3.762,1.359,5.643c-0.193-1.354-0.388-2.706-0.581-4.058c0.027,1.878,0.057,3.756,0.086,5.634&#10;&#9;&#9;&#9;&#9;&#9;c0.104-1.374,0.207-2.749,0.313-4.123c-0.341,1.821-0.68,3.643-1.021,5.464c-0.244,1.32-0.942,3.877,0.45,4.919&#10;&#9;&#9;&#9;&#9;&#9;c0.896,0.671,2.59,0.872,3.37-0.133c1.425-1.437,2.423-3.128,2.992-5.071c0.602-1.856,0.857-3.759,0.771-5.707&#10;&#9;&#9;&#9;&#9;&#9;c-0.301-2.011-1.003-3.871-2.104-5.582c-1.108-1.7-2.527-3.08-4.256-4.14c-1.718-1.064-3.578-1.729-5.581-1.994&#10;&#9;&#9;&#9;&#9;&#9;c-1.986-0.244-3.938-0.078-5.858,0.498c-4.169,0.788-6.688,4.804-8.528,8.167c-1.925,3.52-0.894,7.71,0.382,11.175&#10;&#9;&#9;&#9;&#9;&#9;c1.045,2.837,4.321,5.175,7.176,5.74c1.452,0.487,2.933,0.667,4.443,0.544c1.485-0.216,2.924-0.609,4.313-1.177&#10;&#9;&#9;&#9;&#9;&#9;c1.165-0.519,2.263-1.154,3.292-1.906c1.163-0.858,2.021-1.953,2.577-3.286c0.769-1.319,0.264-3.66-1.563-3.823&#10;&#9;&#9;&#9;&#9;&#9;c-1.359,0.091-2.659,0.425-3.9,1.005C335.078,224.408,333.915,225.081,332.882,225.968z"/>
				<path opacity="0.1034" fill="#F8E81D" d="M327.705,220.65c-0.205,0.22-0.411,0.441-0.616,0.662&#10;&#9;&#9;&#9;&#9;&#9;c0.676,0.564,1.353,1.129,2.029,1.694c-0.83-1.006-1.675-2-2.534-2.981c-0.345-0.982-0.892-1.841-1.639-2.577&#10;&#9;&#9;&#9;&#9;&#9;c0.177,0.312,0.354,0.623,0.532,0.935c-0.302-0.601-0.35-1.227-0.141-1.878c-0.414-1.529-0.836-3.058-1.268-4.583&#10;&#9;&#9;&#9;&#9;&#9;c0.198,1.147,0.396,2.296,0.594,3.443c-0.014-0.916-0.027-1.831-0.042-2.748c-0.08,0.521-0.159,1.04-0.239,1.559&#10;&#9;&#9;&#9;&#9;&#9;c0.461-2.242,1.107-4.432,1.94-6.567c-0.599,1.233-1.199,2.466-1.798,3.7c4.827-2.224,9.651-4.45,14.478-6.674&#10;&#9;&#9;&#9;&#9;&#9;c-0.96-0.253-1.919-0.505-2.878-0.757c1.565,0.591,3.13,1.183,4.693,1.774c-0.515-0.428-1.029-0.857-1.543-1.285&#10;&#9;&#9;&#9;&#9;&#9;c1.915,4.71,4.965,8.472,9.146,11.285c-0.996-1.204-1.991-2.408-2.988-3.613c-2,2.959-3.318,6.198-3.955,9.717&#10;&#9;&#9;&#9;&#9;&#9;c1.168-1.166,2.338-2.331,3.507-3.497c-6.19,3.051-3.656,0.972-7.881,7.275c-0.152,0.154-0.222,0.331-0.208,0.532&#10;&#9;&#9;&#9;&#9;&#9;c6.312-0.743,3.146,0.259,8.225-7.671c-1.169,1.166-2.339,2.331-3.507,3.497c3.513-1.056,5.98-3.073,7.406-6.05&#10;&#9;&#9;&#9;&#9;&#9;c0.402-2.321,0.098-4.649-0.914-6.987c-0.664-1.484-1.438-2.905-2.322-4.262c-0.644-1.307-1.472-2.471-2.48-3.494&#10;&#9;&#9;&#9;&#9;&#9;c-2.176-1.812-5.701-2.029-8.414-2.429c-2.095-0.439-4.146-0.284-6.152,0.465c-3.244,0.724-5.558,3.113-7.643,5.476&#10;&#9;&#9;&#9;&#9;&#9;c-2.857,3.239-2.799,7.391-2.695,11.405c0.043,1.665,1.365,4.497,2.755,5.606c1.519,1.209,3.982,3.979,6.212,3.702&#10;&#9;&#9;&#9;&#9;&#9;c0.982-0.264,1.966-0.288,2.949-0.07c0.802,0.097,1.364-0.397,1.09-1.106C331.177,223.56,327.734,220.588,327.705,220.65z"/>
				<path opacity="0.1034" fill="#F8E81D" d="M324.547,221.042c-1.055,1.878-2.109,3.756-3.164,5.635&#10;&#9;&#9;&#9;&#9;&#9;c1.396-1.942,2.793-3.882,4.189-5.824c-1.827,1.338-3.654,2.677-5.482,4.015c1.348-0.659,2.695-1.316,4.043-1.975&#10;&#9;&#9;&#9;&#9;&#9;c-0.909,0.302-1.818,0.604-2.728,0.906c0.616-0.106,1.23-0.213,1.847-0.319c-0.912,0.04-1.823,0.08-2.735,0.12&#10;&#9;&#9;&#9;&#9;&#9;c0.633,0.008,1.264,0.016,1.896,0.023c-2.951-0.693-5.902-1.387-8.853-2.08c1.873,0.748,3.746,1.495,5.618,2.242&#10;&#9;&#9;&#9;&#9;&#9;c-1.406-0.999-2.811-1.999-4.217-2.997c0.869,0.811,1.737,1.622,2.605,2.433c-1.013-1.241-2.026-2.484-3.04-3.726&#10;&#9;&#9;&#9;&#9;&#9;c0.602,1.013,1.203,2.026,1.805,3.039c-2.516-4.523-1.698-8.98,2.453-13.373c3.365-0.841,6.313-2.5,8.848-4.973&#10;&#9;&#9;&#9;&#9;&#9;c-1.671,0.298-3.341,0.597-5.012,0.894c2.749,2.804,6.027,4.522,9.835,5.156c-1.251-1.077-2.502-2.152-3.754-3.229&#10;&#9;&#9;&#9;&#9;&#9;c1.422,3.572,3.9,6.245,7.438,8.02c-1.072-1.255-2.146-2.509-3.218-3.765c1.006,2.26,2.014,4.521,3.021,6.781&#10;&#9;&#9;&#9;&#9;&#9;c-0.365-1.469-0.731-2.938-1.095-4.407c0.229,2.273,0.459,4.545,0.69,6.818c0.084-1.373,0.169-2.748,0.255-4.122&#10;&#9;&#9;&#9;&#9;&#9;c-0.244,2.331-0.487,4.661-0.731,6.991c0.374-1.467,0.748-2.934,1.121-4.401c-2.188,2.61-3.446,4.318-6.031,6.143&#10;&#9;&#9;&#9;&#9;&#9;c-1.054,0.743-1.65,2.382-0.659,3.369c0.72,0.717,2.707,2.216,3.695,1.071c1.163-1.329,2.305-2.674,3.428-4.036&#10;&#9;&#9;&#9;&#9;&#9;c1.164-1.887,1.086-4.053-0.23-6.5c0.152-1.367,0.112-2.717-0.123-4.048c-1.099-5.412-0.063-2.451-7.096-7.824&#10;&#9;&#9;&#9;&#9;&#9;c1.135,1.003,2.269,2.005,3.401,3.009c-6.396-8.008-2.413-5.828-12.508-6.912c-1.042-0.112-8.035,3.106-8.523,4.345&#10;&#9;&#9;&#9;&#9;&#9;c-1.135,2.876-1.75,4.176-2.159,7.076c-0.275,1.717-0.504,3.442-0.681,5.173c0.306,1.992,0.966,3.858,1.982,5.596&#10;&#9;&#9;&#9;&#9;&#9;c0.646,1.391,1.709,2.376,2.736,3.474s3.83,2.456,5.482,2.365c2.257-0.122,3.928-0.278,5.701-1.82&#10;&#9;&#9;&#9;&#9;&#9;c2.462-2.139,4.032-4.605,5.591-7.408c0.755-1.356,1.304-2.788-0.177-3.896C327.769,216.422,325.646,219.51,324.547,221.042z"/>
				<path opacity="0.1034" fill="#F8E81D" d="M328.989,234.111c-0.366,0.602-0.732,1.204-1.098,1.806&#10;&#9;&#9;&#9;&#9;&#9;c0.265-0.27,0.529-0.541,0.795-0.811c-0.925,0.954-2.044,1.525-3.357,1.717c1.167-0.108,2.333-0.217,3.5-0.325&#10;&#9;&#9;&#9;&#9;&#9;c-3.679,0.198-6.958-0.732-9.837-2.788c0.395,0.385,0.789,0.769,1.184,1.153c-0.646-1.172-1.294-2.346-1.94-3.519&#10;&#9;&#9;&#9;&#9;&#9;c-0.648-3.499-2.466-6.3-5.458-8.403c0.818,1.486,1.635,2.975,2.451,4.461c1.697-3.038,3.081-6.209,4.151-9.512&#10;&#9;&#9;&#9;&#9;&#9;c-1.067,1.26-2.134,2.519-3.201,3.777c5.367-3.095,2.753-1.206,8.151-6.875c-1.195,0.93-2.389,1.86-3.583,2.792&#10;&#9;&#9;&#9;&#9;&#9;c2.292-1.037,4.585-2.074,6.878-3.109c-1.591,0.441-3.181,0.883-4.773,1.325c2.563-0.333,5.126-0.668,7.69-1.003&#10;&#9;&#9;&#9;&#9;&#9;c-1.514-0.01-3.028-0.021-4.541-0.032c2.486,0.217,4.974,0.435,7.461,0.652c-1.608-0.375-3.216-0.75-4.824-1.125&#10;&#9;&#9;&#9;&#9;&#9;c1.599,1.166,3.197,2.33,4.796,3.495c0.531,0.875,1.185,1.647,1.962,2.319c0.068,0.22,0.138,0.44,0.207,0.661&#10;&#9;&#9;&#9;&#9;&#9;c0.629,0.715,0.981,1.551,1.059,2.509c-0.066-0.341-0.133-0.68-0.199-1.02c-0.069,1.449,0.021,2.89,0.271,4.324&#10;&#9;&#9;&#9;&#9;&#9;c0-0.45,0.001-0.901,0.001-1.352c-0.114,0.98-0.228,1.96-0.343,2.938c0.069-0.471,0.137-0.941,0.205-1.412&#10;&#9;&#9;&#9;&#9;&#9;c-0.816,1.991-1.504,4.026-2.063,6.108c-0.387,1.207-1.002,3.561,0.256,4.556c0.806,0.638,2.548,1.059,3.355,0.132&#10;&#9;&#9;&#9;&#9;&#9;c1.457-1.406,2.628-3.021,3.516-4.842c0.856-1.837,1.222-3.768,1.096-5.794c-0.007-1.416-0.163-2.811-0.471-4.186&#10;&#9;&#9;&#9;&#9;&#9;c-0.373-1.896-1.198-3.569-2.475-5.019c-0.592-0.652-1.245-1.239-1.96-1.761c-0.841-0.713-1.711-1.393-2.606-2.035&#10;&#9;&#9;&#9;&#9;&#9;c-4.436-2.195-9.1-1.938-13.996,0.771c-2.18,1.658-3.833,3.837-4.96,6.536c0.992-1.143,1.983-2.287,2.976-3.43&#10;&#9;&#9;&#9;&#9;&#9;c-5.779,2.447-7.968,6.633-6.569,12.56c0.167,1.304,0.595,2.545,1.282,3.72c0.462,1.423,1.148,2.709,2.058,3.86&#10;&#9;&#9;&#9;&#9;&#9;c1.738,1.693,4.5,2.447,6.693,3.242c2.417,0.875,5.338,0.649,7.815,0.531c1.254-0.238,2.485-0.567,3.692-0.988&#10;&#9;&#9;&#9;&#9;&#9;c1.621-0.484,2.786-2.146,3.816-3.347c0.415-0.775,0.488-1.582,0.219-2.419c-0.434-0.922-1.184-1.413-2.251-1.47&#10;&#9;&#9;&#9;&#9;&#9;C334.314,233.095,330.169,232.166,328.989,234.111z"/>
				<path opacity="0.1034" fill="#F8E81D" d="M334.85,225.897c-5.125,1.575-7.814,0.604-8.064-2.912&#10;&#9;&#9;&#9;&#9;&#9;c-0.044-1.076,0.018-2.143,0.188-3.204c-0.09,0.342-0.179,0.685-0.269,1.027c0.296-0.839,0.591-1.679,0.887-2.519&#10;&#9;&#9;&#9;&#9;&#9;c-0.14,0.385-0.279,0.768-0.419,1.151c0.312-0.457,0.623-0.914,0.934-1.372c0.968-2.285,2.43-4.227,4.39-5.826&#10;&#9;&#9;&#9;&#9;&#9;c-1.057,0.796-2.112,1.592-3.169,2.388c2.065-1.197,4.24-2.155,6.522-2.874c-1.389,0.378-2.776,0.756-4.165,1.134&#10;&#9;&#9;&#9;&#9;&#9;c1.97-0.313,3.939-0.627,5.909-0.94c-1.452,0.097-2.905,0.194-4.357,0.291c2.478,0.361,4.956,0.721,7.434,1.081&#10;&#9;&#9;&#9;&#9;&#9;c-1.373-0.515-2.747-1.03-4.121-1.543c2.544,1.953,5.086,3.906,7.629,5.859c-0.573-1.097-1.145-2.193-1.718-3.288&#10;&#9;&#9;&#9;&#9;&#9;c0.526,3.639,1.051,7.278,1.575,10.917c0.153-1.031,0.306-2.063,0.459-3.093c-0.521,1.586-1.042,3.172-1.563,4.758&#10;&#9;&#9;&#9;&#9;&#9;c-0.521,1.586,1.34,2.62,2.612,2.927c1.742,0.422,2.452-1.575,2.965-2.828c0.813-1.985,1.154-4.026,1.511-6.129&#10;&#9;&#9;&#9;&#9;&#9;c0.384-2.055,0.138-4.03-0.736-5.928c-0.886-3.046-3.255-5.172-5.597-7.079c-3.282-2.671-7.874-2.295-11.713-1.741&#10;&#9;&#9;&#9;&#9;&#9;c-1.96,0.514-3.656,1.484-5.09,2.911c-2.518,1.935-3.816,4.784-4.941,7.624c-1.208,3.048-0.539,6.598,0.234,9.622&#10;&#9;&#9;&#9;&#9;&#9;c0.742,2.911,3.571,4.267,5.909,5.62c1.461,0.844,3.191,0.917,4.813,0.979c0.928,0.082,1.811-0.127,2.653-0.628&#10;&#9;&#9;&#9;&#9;&#9;c1.783-0.559,2.753-2.217,3.747-3.618c0.584-0.826-0.691-3.421-1.426-3.878C336.908,224.185,335.327,225.029,334.85,225.897z"/>
				<path opacity="0.1034" fill="#F8E81D" d="M325.924,218.293c-0.666,1.199-1.332,2.399-1.997,3.599&#10;&#9;&#9;&#9;&#9;&#9;c0.951-1.234,1.903-2.469,2.855-3.704c-0.864,0.951-1.726,1.902-2.588,2.853c1.04-0.904,2.081-1.806,3.12-2.71&#10;&#9;&#9;&#9;&#9;&#9;c-1.82,1.151-3.642,2.304-5.46,3.458c1.284-0.648,2.569-1.297,3.854-1.945c-0.816,0.235-1.633,0.472-2.45,0.708&#10;&#9;&#9;&#9;&#9;&#9;c0.609-0.122,1.219-0.243,1.83-0.365c-1.854-0.379-3.74-0.4-5.657-0.061c1.557,0.213,3.114,0.425,4.671,0.638&#10;&#9;&#9;&#9;&#9;&#9;c-2.766-1.879-5.531-3.759-8.296-5.639c1.511,1.793,3.024,3.587,4.536,5.381c-0.926-1.819-1.852-3.638-2.778-5.456&#10;&#9;&#9;&#9;&#9;&#9;c0.499,1.216,0.997,2.433,1.494,3.651c-0.429-1.784-0.86-3.568-1.29-5.351c0.144,1.203,0.289,2.405,0.433,3.608&#10;&#9;&#9;&#9;&#9;&#9;c0.206-5.581,2.475-9.424,6.807-11.531c-0.717,0.229-1.434,0.458-2.151,0.687c4.017,0.172,8.459,0.198,11.725,3.03&#10;&#9;&#9;&#9;&#9;&#9;c1.819,3.837,1.689,7.799-0.391,11.888c-0.692,0.451-1.332,0.965-1.919,1.541c-0.906,0.836-1.491,1.869-0.481,2.884&#10;&#9;&#9;&#9;&#9;&#9;c1.206,1.214,2.849,2.335,4.149,0.749c0.95-1.185,1.933-2.342,2.95-3.469c0.607-0.853,1.022-1.806,1.25-2.861&#10;&#9;&#9;&#9;&#9;&#9;c-0.493-3.41-0.661-6.832-0.503-10.262c0.05-3.192-0.872-3.528-2.998-5.489c-1.894-0.894-3.837-1.647-5.83-2.257&#10;&#9;&#9;&#9;&#9;&#9;c-2.461-0.51-5.903-1.751-8.426-0.944c-1.207,0.468-2.279,1.163-3.219,2.083c-0.644,0.499-1.287,0.997-1.932,1.495&#10;&#9;&#9;&#9;&#9;&#9;c-2.453,1.67-4.097,3.882-4.932,6.635c-1.041,2.361-1.147,4.972-0.832,7.463c0.36,2.843,2.169,5.125,4.004,7.168&#10;&#9;&#9;&#9;&#9;&#9;c0.945,0.855,2.02,1.452,3.225,1.791c1.679,0.444,2.573,0.472,4.389,0.309c4.057-0.367,6.654-5.516,8.31-8.511&#10;&#9;&#9;&#9;&#9;&#9;c0.741-1.34,0.845-2.615-0.515-3.571C328.72,214.265,327.022,216.708,325.924,218.293z"/>
				<path opacity="0.1034" fill="#F8E81D" d="M329.836,219.775c-0.545,0.95-1.087,1.897-1.63,2.846&#10;&#9;&#9;&#9;&#9;&#9;c0.762-0.908,1.522-1.817,2.284-2.725c-0.895,0.825-1.788,1.648-2.683,2.473c1.095-0.851,2.189-1.701,3.284-2.552&#10;&#9;&#9;&#9;&#9;&#9;c-1.302,0.771-2.67,1.413-4.099,1.927c1.202-0.331,2.403-0.662,3.604-0.992c-2.896-0.278-5.792-0.558-8.688-0.836&#10;&#9;&#9;&#9;&#9;&#9;c2.249,0.505,4.499,1.011,6.748,1.516c-2.559-2.169-5.119-4.337-7.676-6.506c1.544,1.98,3.089,3.961,4.634,5.942&#10;&#9;&#9;&#9;&#9;&#9;c-0.775-3.639-1.55-7.278-2.325-10.918c0.097,1.873,0.194,3.746,0.291,5.617c0.209-1.356,0.417-2.713,0.626-4.069&#10;&#9;&#9;&#9;&#9;&#9;c-0.474,1.499-0.948,2.998-1.422,4.496c1.85-2.666,3.7-5.333,5.549-7.999c-1.205,0.71-2.412,1.42-3.618,2.13&#10;&#9;&#9;&#9;&#9;&#9;c4.154-0.257,8.306-0.515,12.459-0.772c-1.068-0.386-2.137-0.772-3.205-1.159c5.699,3.712,6.684,8.213,2.95,13.503&#10;&#9;&#9;&#9;&#9;&#9;c-0.903,1.627-0.8,2.81,0.895,3.756c1.807,1.01,2.616,0.321,3.668-1.207c1.121-1.398,1.907-2.977,2.361-4.736&#10;&#9;&#9;&#9;&#9;&#9;c0.591-1.446,1.063-4.58,0.678-6.284c-0.665-2.945-2.78-5.494-4.68-7.739c-1.546-1.373-3.35-2.335-5.41-2.887&#10;&#9;&#9;&#9;&#9;&#9;c-0.952-0.213-1.904-0.426-2.856-0.641c-2.006-0.486-3.938-0.271-5.797,0.646c-3.513,1.024-6.253,4.044-7.967,7.121&#10;&#9;&#9;&#9;&#9;&#9;c-1.062,1.907-1.798,4.502-1.537,6.711c0.087,0.967,0.22,1.929,0.397,2.884c0.354,0.872,0.71,1.746,1.064,2.618&#10;&#9;&#9;&#9;&#9;&#9;c0.69,1.14,1.542,2.134,2.551,2.982c0.886,0.836,1.888,1.51,3.005,2.022c1.914,1.143,4.237,0.498,6.152-0.094&#10;&#9;&#9;&#9;&#9;&#9;c3.219-0.997,5.091-3.553,6.788-6.256c0.742-0.669,0.979-1.464,0.714-2.383c-0.323-0.806-0.874-1.398-1.652-1.78&#10;&#9;&#9;&#9;&#9;&#9;C333.349,215.563,330.832,218.503,329.836,219.775z"/>
				<path opacity="0.1034" fill="#F8E81D" d="M334.984,229.892c-0.308,1.421-1.202,2.257-2.683,2.508&#10;&#9;&#9;&#9;&#9;&#9;c0.575-0.044,1.151-0.087,1.728-0.131c-4.662,0.473-7.708-1.156-9.144-4.885c-0.313-1.622-0.344-3.249-0.093-4.882&#10;&#9;&#9;&#9;&#9;&#9;c0.146-2.242,2.869-4.688,4.466-5.874c-0.33,0.14-0.661,0.281-0.99,0.422c0.869-0.333,1.739-0.663,2.61-0.995&#10;&#9;&#9;&#9;&#9;&#9;c-0.394,0.123-0.786,0.246-1.178,0.37c2.141-0.295,4.028-0.792,6.143-1.355c-1.138,0.172-2.275,0.343-3.413,0.514&#10;&#9;&#9;&#9;&#9;&#9;c0.897,0.01,1.796,0.018,2.694,0.026c-0.521-0.076-1.039-0.152-1.56-0.229c2.853,0.572,5.532,1.622,8.041,3.154&#10;&#9;&#9;&#9;&#9;&#9;c-1.118-0.803-2.236-1.607-3.354-2.41c1.453,1.303,2.908,2.605,4.361,3.909c-0.905-1.025-1.811-2.05-2.716-3.075&#10;&#9;&#9;&#9;&#9;&#9;c1.095,1.55,2.191,3.102,3.287,4.652c-0.678-1.217-1.356-2.432-2.034-3.648c0.75,1.87,1.5,3.741,2.249,5.612&#10;&#9;&#9;&#9;&#9;&#9;c-0.358-1.225-0.719-2.45-1.078-3.673c-0.085,2.905-0.171,5.812-0.255,8.717c-0.402,1.014-0.558,2.061-0.465,3.139&#10;&#9;&#9;&#9;&#9;&#9;c0.305,1.132,1.9,1.667,2.916,1.624c0.334-0.107,0.669-0.215,1.004-0.321c0.718-0.81,1.219-1.741,1.504-2.793&#10;&#9;&#9;&#9;&#9;&#9;c0.504-0.768,1.008-1.535,1.512-2.303c0.63-1.891,0.921-3.831,0.873-5.824c0.192-3.131-2.193-6.061-3.977-8.296&#10;&#9;&#9;&#9;&#9;&#9;c-1.862-2.335-5.055-3.449-7.765-4.266c-0.919-0.044-1.837-0.087-2.756-0.13c-1.51-0.091-2.959,0.126-4.346,0.653&#10;&#9;&#9;&#9;&#9;&#9;c-2.351,0.767-3.171,1.249-5.346,2.723c-0.621,0.7-1.244,1.4-1.867,2.101c-1.377,1.479-2.397,3.172-3.062,5.078&#10;&#9;&#9;&#9;&#9;&#9;c-0.453,0.976-0.559,2.201-0.551,3.269c0.026,3.132,0.047,3.225,0.58,6.234c0.048,0.149,0.098,0.299,0.148,0.448&#10;&#9;&#9;&#9;&#9;&#9;c0.285,0.965,0.659,1.889,1.121,2.776c1.972,1.507,3.639,2.917,6.085,3.611c2.018,0.573,2.978,0.807,5,0.997&#10;&#9;&#9;&#9;&#9;&#9;c2.998,0.28,5.512-1.668,7.168-3.952c0.696-0.96,0.422-3.378-0.568-4.091C338.447,228.699,335.499,228.844,334.984,229.892z"/>
				<path opacity="0.1034" fill="#F8E81D" d="M323.545,228.03c-0.351,0.613-0.702,1.227-1.054,1.839&#10;&#9;&#9;&#9;&#9;&#9;c0.501-0.497,1.001-0.992,1.502-1.489c-0.494,0.391-0.987,0.781-1.479,1.171c1.654-1.025,3.308-2.052,4.963-3.078&#10;&#9;&#9;&#9;&#9;&#9;c-2.293,1.251-4.762,2.026-7.406,2.328c1.489-0.129,2.98-0.256,4.47-0.383c-1.13-0.058-2.261-0.116-3.392-0.174&#10;&#9;&#9;&#9;&#9;&#9;c0.601,0.11,1.203,0.22,1.805,0.331c-1.894-0.352-3.787-0.703-5.68-1.055c1.287,0.448,2.576,0.898,3.863,1.347&#10;&#9;&#9;&#9;&#9;&#9;c-2.696-2.307-5.394-4.615-8.091-6.922c0.572,1.351,1.145,2.703,1.716,4.056c-0.573-2.966-0.625-5.937-0.154-8.91&#10;&#9;&#9;&#9;&#9;&#9;c4.457-5.473,9.895-7.595,16.313-6.367c-1.511-0.121-3.019-0.241-4.528-0.361c2.195,0.936,4.389,1.873,6.584,2.808&#10;&#9;&#9;&#9;&#9;&#9;c-1.353-0.68-2.706-1.359-4.059-2.037c2.65,2.219,5.095,4.653,7.33,7.305c-0.899-1.384-1.799-2.768-2.698-4.151&#10;&#9;&#9;&#9;&#9;&#9;c0.163,1.891,0.326,3.781,0.489,5.672c-0.236,1.051-0.448,2.107-0.635,3.167c-0.185,0.335-0.367,0.67-0.551,1.005&#10;&#9;&#9;&#9;&#9;&#9;c-1.038,0.67-1.814,1.578-2.331,2.723c-0.723,1.074-1.715,3.102-1.41,4.468c0.236,1.067,2.884,2.607,3.814,1.583&#10;&#9;&#9;&#9;&#9;&#9;c2.123-2.335,4.915-5.177,5.276-8.515c0.239-1.618,0.31-3.245,0.212-4.882c0.016-4.511-2.911-4.361-6.713-6.404&#10;&#9;&#9;&#9;&#9;&#9;c1.287,0.799,2.572,1.597,3.858,2.396c-2.349-2.65-4.515-5.307-7.012-7.83c-2.784,0.165-5.567,0.328-8.351,0.493&#10;&#9;&#9;&#9;&#9;&#9;c-2.272-0.359-4.483-0.133-6.634,0.679c-1.409,0.338-2.378,1.863-2.754,3.224c-0.598,2.154-2.184,6.25-1.921,8.769&#10;&#9;&#9;&#9;&#9;&#9;c0.183,1.744,0.364,3.486,0.547,5.23c0.754,1.867,1.73,3.608,2.927,5.226c0.701,0.6,1.401,1.197,2.101,1.797&#10;&#9;&#9;&#9;&#9;&#9;c2.887,0.545,5.789,1.013,8.704,1.4c0.652-0.242,1.302-0.485,1.954-0.728c1.751-0.872,3.407-1.897,4.963-3.078&#10;&#9;&#9;&#9;&#9;&#9;c0.526-0.483,1.054-0.965,1.579-1.448c1.178-0.904,2.049-2.045,2.609-3.424c0.92-1.608-0.314-3.842-2.301-3.431&#10;&#9;&#9;&#9;&#9;&#9;c-1.62,0.566-3.128,1.356-4.519,2.371C325.987,225.652,324.684,226.746,323.545,228.03z"/>
			</g>
		</g>
	</g>
	<text transform="matrix(1 0 0 1 359.3462 228.1084)" font-family="'Arial'" font-size="10">SUN</text>
</g>
<g id="Comet_1_">
	<g id="Comet">
		<line fill="none" x1="242.224" y1="77.869" x2="245.505" y2="81.806"/>
		<circle fill="none" cx="242.224" cy="77.869" r="4.271"/>
		<circle fill="none" cx="242.224" cy="77.869" r="5.125"/>
		<polyline fill="none" points="242.224,77.869 225.677,92.308 242.224,77.869 258.771,63.43 242.224,77.869 227.785,61.321 &#10;&#9;&#9;&#9;242.224,77.869 256.663,94.416 242.224,77.869 244.238,85.668 242.224,77.869 240.21,70.069 242.224,77.869 234.424,79.883 &#10;&#9;&#9;&#9;242.224,77.869 250.023,75.854 242.224,77.869 231.421,89.978 242.224,77.869 253.027,65.76 242.224,77.869 230.115,67.065 &#10;&#9;&#9;&#9;242.224,77.869 254.333,88.672 242.224,77.869 232.436,97.722 242.224,77.869 252.012,58.016 242.224,77.869 222.371,68.08 &#10;&#9;&#9;&#9;242.224,77.869 262.077,87.657 242.224,77.869 238.634,84.036 242.224,77.869 245.813,71.701 242.224,77.869 236.057,74.279 &#10;&#9;&#9;&#9;242.224,77.869 248.391,81.458 242.224,77.869 239.406,98.343 242.224,77.869 245.042,57.395 242.224,77.869 221.75,75.051 &#10;&#9;&#9;&#9;242.224,77.869 262.698,80.687 242.224,77.869 242.077,79.054 242.224,77.869 242.371,76.684 242.224,77.869 241.039,77.722 &#10;&#9;&#9;&#9;242.224,77.869 243.409,78.016 242.224,77.869 235.522,90.473 242.224,77.869 248.926,65.265 242.224,77.869 229.62,71.167 &#10;&#9;&#9;&#9;242.224,77.869 254.828,84.57 242.224,77.869 234.685,99.432 242.224,77.869 249.763,56.306 242.224,77.869 220.661,70.329 &#10;&#9;&#9;&#9;242.224,77.869 263.787,85.408 242.224,77.869 240.096,92.008 242.224,77.869 244.352,63.729 242.224,77.869 228.084,75.74 &#10;&#9;&#9;&#9;242.224,77.869 256.363,79.997 242.224,77.869 241.533,86.716 242.224,77.869 242.915,69.021 242.224,77.869 233.376,77.178 &#10;&#9;&#9;&#9;242.224,77.869 251.071,78.56 242.224,77.869 245.91,99.943 242.224,77.869 238.537,55.794 242.224,77.869 220.149,81.556 &#10;&#9;&#9;&#9;242.224,77.869 264.298,74.183 242.224,77.869 227.659,98.627 242.224,77.869 256.789,57.11 242.224,77.869 221.466,63.304 &#10;&#9;&#9;&#9;242.224,77.869 262.982,92.434 242.224,77.869 242.988,79.85 242.224,77.869 241.46,75.888 242.224,77.869 240.243,78.633 &#10;&#9;&#9;&#9;242.224,77.869 244.205,77.104 242.224,77.869 243.138,82.672 242.224,77.869 241.31,73.065 242.224,77.869 237.42,78.782 &#10;&#9;&#9;&#9;242.224,77.869 247.027,76.955 &#9;&#9;"/>
		<radialGradient id="SVGID_4_" cx="242.2241" cy="77.8687" r="10.2505" gradientUnits="userSpaceOnUse">
			<stop offset="0"/>
			<stop offset="0.73"/>
			<stop offset="1"/>
		</radialGradient>
		<circle opacity="0.15" fill="url(#SVGID_4_)" cx="242.224" cy="77.869" r="10.251"/>
		<radialGradient id="SVGID_5_" cx="242.2241" cy="77.8687" r="5.1252" gradientUnits="userSpaceOnUse">
			<stop offset="0.15"/>
			<stop offset="0.2134"/>
			<stop offset="0.2931"/>
			<stop offset="0.362"/>
			<stop offset="0.4166"/>
			<stop offset="0.45"/>
			<stop offset="0.5442"/>
			<stop offset="0.6472"/>
			<stop offset="0.7362"/>
			<stop offset="0.8068"/>
			<stop offset="0.85"/>
			<stop offset="0.856"/>
			<stop offset="0.8623"/>
			<stop offset="0.8686"/>
			<stop offset="0.875"/>
			<stop offset="0.8815"/>
			<stop offset="0.888"/>
			<stop offset="0.8945"/>
			<stop offset="0.9"/>
			<stop offset="0.9063"/>
			<stop offset="0.916"/>
			<stop offset="0.9262"/>
			<stop offset="0.9367"/>
			<stop offset="0.9475"/>
			<stop offset="0.9588"/>
			<stop offset="0.9707"/>
			<stop offset="0.9838"/>
			<stop offset="1"/>
		</radialGradient>
		<circle opacity="0.5" fill="url(#SVGID_5_)" cx="242.224" cy="77.869" r="5.125"/>
		<radialGradient id="SVGID_6_" cx="242.2241" cy="77.8687" r="4.271" gradientUnits="userSpaceOnUse">
			<stop offset="0.15"/>
			<stop offset="0.2824"/>
			<stop offset="0.4253"/>
			<stop offset="0.5636"/>
			<stop offset="0.6936"/>
			<stop offset="0.8134"/>
			<stop offset="0.9192"/>
			<stop offset="1"/>
		</radialGradient>
		<circle fill="url(#SVGID_6_)" cx="242.224" cy="77.869" r="4.271"/>
		<polyline opacity="0.03" fill="none" stroke="#FFFFFF" stroke-width="2" points="242.224,77.869 &#10;&#9;&#9;&#9;225.677,92.308 242.224,77.869 258.771,63.43 242.224,77.869 227.785,61.321 242.224,77.869 256.663,94.416 242.224,77.869 &#10;&#9;&#9;&#9;244.238,85.668 242.224,77.869 240.21,70.069 242.224,77.869 234.424,79.883 242.224,77.869 250.023,75.854 242.224,77.869 &#10;&#9;&#9;&#9;231.421,89.978 242.224,77.869 253.027,65.76 242.224,77.869 230.115,67.065 242.224,77.869 254.333,88.672 242.224,77.869 &#10;&#9;&#9;&#9;232.436,97.722 242.224,77.869 252.012,58.016 242.224,77.869 222.371,68.08 242.224,77.869 262.077,87.657 242.224,77.869 &#10;&#9;&#9;&#9;238.634,84.036 242.224,77.869 245.813,71.701 242.224,77.869 236.057,74.279 242.224,77.869 248.391,81.458 242.224,77.869 &#10;&#9;&#9;&#9;239.406,98.343 242.224,77.869 245.042,57.395 242.224,77.869 221.75,75.051 242.224,77.869 262.698,80.687 242.224,77.869 &#10;&#9;&#9;&#9;242.077,79.054 242.224,77.869 242.371,76.684 242.224,77.869 241.039,77.722 242.224,77.869 243.409,78.016 242.224,77.869 &#10;&#9;&#9;&#9;235.522,90.473 242.224,77.869 248.926,65.265 242.224,77.869 229.62,71.167 242.224,77.869 254.828,84.57 242.224,77.869 &#10;&#9;&#9;&#9;234.685,99.432 242.224,77.869 249.763,56.306 242.224,77.869 220.661,70.329 242.224,77.869 263.787,85.408 242.224,77.869 &#10;&#9;&#9;&#9;240.096,92.008 242.224,77.869 244.352,63.729 242.224,77.869 228.084,75.74 242.224,77.869 256.363,79.997 242.224,77.869 &#10;&#9;&#9;&#9;241.533,86.716 242.224,77.869 242.915,69.021 242.224,77.869 233.376,77.178 242.224,77.869 251.071,78.56 242.224,77.869 &#10;&#9;&#9;&#9;245.91,99.943 242.224,77.869 238.537,55.794 242.224,77.869 220.149,81.556 242.224,77.869 264.298,74.183 242.224,77.869 &#10;&#9;&#9;&#9;227.659,98.627 242.224,77.869 256.789,57.11 242.224,77.869 221.466,63.304 242.224,77.869 262.982,92.434 242.224,77.869 &#10;&#9;&#9;&#9;242.988,79.85 242.224,77.869 241.46,75.888 242.224,77.869 240.243,78.633 242.224,77.869 244.205,77.104 242.224,77.869 &#10;&#9;&#9;&#9;243.138,82.672 242.224,77.869 241.31,73.065 242.224,77.869 237.42,78.782 242.224,77.869 247.027,76.955 &#9;&#9;"/>
	</g>
	<g id="Tail_5" opacity="0.08">
		
			<radialGradient id="SVGID_7_" cx="252.3433" cy="35.4526" r="27.1707" gradientTransform="matrix(1 0 0 1.0488 0 6.2227)" gradientUnits="userSpaceOnUse">
			<stop offset="0"/>
			<stop offset="0.73"/>
			<stop offset="1"/>
		</radialGradient>
		<path fill="url(#SVGID_7_)" d="M242.105,76.032c0,0-0.292-0.206-0.774-0.609c-0.455-0.403-1.132-1.045-1.823-1.887&#10;&#9;&#9;&#9;c-0.695-0.848-1.449-1.917-2.117-3.212c-0.672-1.293-1.293-2.806-1.722-4.514c-0.22-0.853-0.388-1.754-0.506-2.695&#10;&#9;&#9;&#9;c-0.127-0.94-0.172-1.924-0.044-2.937c0.195-2.029,1.19-4.147,2.229-6.214c1.068-2.073,1.918-4.12,2.239-6.298&#10;&#9;&#9;&#9;c0.382-2.168,0.382-4.469,0.306-6.933c-0.074-2.456,0.062-4.995,0.812-7.271c0.739-2.274,1.632-4.488,2.699-6.531&#10;&#9;&#9;&#9;c1.079-2.035,2.434-3.821,3.959-5.27c1.521-1.455,3.146-2.626,4.725-3.562c3.183-1.859,6.198-2.729,8.405-3.006&#10;&#9;&#9;&#9;c1.09-0.163,1.987-0.181,2.588-0.18c0.305,0.012,0.537,0.018,0.675,0.036c0.063,0.018,0.129,0.008,0.091,0.076&#10;&#9;&#9;&#9;c0.019-0.012-0.064,0.083-0.089,0.152l-0.019,0.051c-0.017,0.037-0.059,0.187-0.035,0.309c0.03,0.275,0.284,0.432,0.275,0.421&#10;&#9;&#9;&#9;c0.201,0.115,0.326,0.079,0.319,0.086v-1.2c-0.007,0.007,0.126-0.028,0.344,0.091c-0.003-0.011,0.248,0.153,0.28,0.432&#10;&#9;&#9;&#9;c0.024,0.125-0.017,0.278-0.034,0.317l-0.024,0.058c-0.032,0.08-0.123,0.187-0.117,0.185c-0.086,0.115-0.101,0.163-0.146,0.255&#10;&#9;&#9;&#9;c-0.067,0.149-0.167,0.372-0.297,0.662c-0.255,0.543-0.615,1.32-1.085,2.227c-0.912,1.859-2.244,4.231-3.783,6.823&#10;&#9;&#9;&#9;c-0.782,1.287-1.605,2.642-2.51,4.002c-0.901,1.365-1.94,2.689-3.124,4.018c-1.19,1.323-2.421,2.73-3.568,4.271&#10;&#9;&#9;&#9;c-1.142,1.536-2.665,3.001-4.114,4.644c-1.456,1.633-2.554,3.524-2.986,5.534c-0.497,1.999-0.186,4.113,0.58,6.082&#10;&#9;&#9;&#9;c0.734,1.975,1.658,3.779,1.952,5.464c0.328,1.686,0.205,3.295,0.152,4.813c-0.079,1.516-0.27,2.946-0.498,4.25&#10;&#9;&#9;&#9;c-0.224,1.302-0.519,2.483-0.816,3.485c-0.288,1.005-0.622,1.81-0.834,2.391c-0.238,0.581-0.4,0.899-0.4,0.899L242.105,76.032z"/>
	</g>
	<g id="Tail_4" opacity="0.12">
		
			<radialGradient id="SVGID_8_" cx="262.9067" cy="25.4355" r="26.6262" gradientTransform="matrix(1 0 0 1.1442 0 18.3876)" gradientUnits="userSpaceOnUse">
			<stop offset="0"/>
			<stop offset="0.73"/>
			<stop offset="1"/>
		</radialGradient>
		<path fill="url(#SVGID_8_)" d="M241.344,74.28c0,0-0.115-0.313-0.278-0.891c-0.146-0.574-0.362-1.417-0.524-2.465&#10;&#9;&#9;&#9;c-0.161-1.055-0.344-2.287-0.238-3.793c0.037-0.744,0.08-1.542,0.181-2.375c0.078-0.84,0.209-1.719,0.426-2.585&#10;&#9;&#9;&#9;c0.22-0.872,0.446-1.785,0.739-2.711c0.146-0.463,0.282-0.939,0.478-1.401c0.208-0.458,0.438-0.916,0.695-1.368&#10;&#9;&#9;&#9;c0.508-0.908,1.125-1.795,1.81-2.661c0.73-0.846,1.563-1.656,2.359-2.482c0.405-0.41,0.798-0.827,1.174-1.253&#10;&#9;&#9;&#9;c0.393-0.418,0.801-0.828,1.174-1.26c0.763-0.853,1.402-1.786,2.005-2.757c1.339-1.853,2.308-4.021,3.436-6.193l0.82-1.665&#10;&#9;&#9;&#9;c0.295-0.541,0.631-1.051,0.951-1.579c0.675-1.022,1.352-2.064,2.177-2.944c0.843-0.873,1.68-1.738,2.506-2.593&#10;&#9;&#9;&#9;c0.846-0.842,1.77-1.578,2.66-2.329c0.457-0.359,0.89-0.749,1.359-1.075c0.477-0.314,0.957-0.614,1.438-0.901&#10;&#9;&#9;&#9;c0.969-0.561,1.91-1.129,2.897-1.538c1.993-0.779,3.874-1.498,5.719-1.819c0.914-0.182,1.784-0.352,2.616-0.476&#10;&#9;&#9;&#9;c0.837-0.109,1.653-0.124,2.404-0.161c1.507-0.059,2.81-0.044,3.908,0.153c2.17,0.284,3.385,0.668,3.385,0.668l0.152,0.887&#10;&#9;&#9;&#9;c0,0-1.007,0.857-2.725,1.969c-0.864,0.539-1.869,1.261-3.012,2.003c-0.569,0.354-1.174,0.73-1.813,1.128&#10;&#9;&#9;&#9;c-0.615,0.438-1.268,0.856-1.942,1.291c-1.385,0.786-2.75,1.85-4.288,2.733c-0.758,0.464-1.498,1.001-2.308,1.456&#10;&#9;&#9;&#9;c-0.401,0.234-0.813,0.461-1.237,0.679c-0.409,0.243-0.821,0.489-1.237,0.737c-0.829,0.503-1.736,0.935-2.592,1.471&#10;&#9;&#9;&#9;c-0.854,0.552-1.717,1.111-2.588,1.674c-0.884,0.561-1.727,1.194-2.689,1.732c-0.475,0.275-0.979,0.531-1.446,0.829l-1.407,0.913&#10;&#9;&#9;&#9;c-0.911,0.643-1.935,1.221-2.696,2.023c-0.806,0.765-1.538,1.596-2.203,2.462c-0.629,0.892-1.125,1.867-1.532,2.867&#10;&#9;&#9;&#9;c-0.196,0.505-0.397,1-0.528,1.527c-0.125,0.531-0.23,1.066-0.317,1.6c-0.175,1.05-0.347,2.082-0.515,3.092&#10;&#9;&#9;&#9;c-0.13,1.015-0.31,1.968-0.579,2.851c-0.59,1.739-1.218,3.36-1.943,4.817c-0.392,0.727-0.677,1.428-1.008,2.085&#10;&#9;&#9;&#9;c-0.313,0.663-0.664,1.285-0.996,1.875c-0.7,1.144-1.306,2.292-1.878,3.181c-0.565,0.897-1.099,1.584-1.461,2.053&#10;&#9;&#9;&#9;c-0.38,0.465-0.61,0.707-0.61,0.707L241.344,74.28z"/>
	</g>
	<g id="Tail_3" opacity="0.08">
		
			<radialGradient id="SVGID_9_" cx="263.2886" cy="50.0488" r="20.9533" gradientTransform="matrix(1 0 0 1.0098 0 1.2504)" gradientUnits="userSpaceOnUse">
			<stop offset="0"/>
			<stop offset="0.73"/>
			<stop offset="1"/>
		</radialGradient>
		<path fill="url(#SVGID_9_)" d="M247.402,74.624c0,0-0.053-0.227-0.153-0.651c-0.083-0.424-0.24-1.047-0.369-1.838&#10;&#9;&#9;&#9;c-0.069-0.396-0.146-0.834-0.229-1.312c-0.059-0.488-0.091-1.018-0.14-1.59c-0.048-0.573-0.075-1.184-0.115-1.835&#10;&#9;&#9;&#9;c-0.008-0.646,0.038-1.319,0.059-2.033c0.006-1.429,0.307-2.962,0.585-4.608c0.433-1.608,0.9-3.336,1.707-5.004&#10;&#9;&#9;&#9;c0.332-0.872,0.815-1.673,1.296-2.493c0.24-0.411,0.481-0.825,0.724-1.241c0.281-0.384,0.563-0.77,0.847-1.157&#10;&#9;&#9;&#9;c1.098-1.594,2.433-2.988,3.759-4.362c0.695-0.645,1.39-1.291,2.082-1.933c0.708-0.607,1.443-1.173,2.159-1.75&#10;&#9;&#9;&#9;c0.708-0.593,1.448-1.104,2.179-1.615c0.731-0.507,1.438-1.038,2.169-1.489c1.449-0.917,2.854-1.812,4.223-2.567&#10;&#9;&#9;&#9;c1.368-0.762,2.667-1.479,3.891-2.082c4.876-2.462,8.421-3.623,8.421-3.622c0,0-0.152,0.176-0.438,0.505&#10;&#9;&#9;&#9;c-0.295,0.315-0.709,0.807-1.275,1.375c-1.111,1.166-2.731,2.779-4.735,4.606c-1.011,0.906-2.084,1.896-3.251,2.903&#10;&#9;&#9;&#9;c-1.179,0.996-2.363,2.082-3.646,3.141c-1.238,1.078-2.519,2.191-3.819,3.323c-0.633,0.568-1.263,1.151-1.915,1.709l-1.833,1.768&#10;&#9;&#9;&#9;c-0.64,0.567-1.161,1.205-1.748,1.8c-0.593,0.594-1.107,1.219-1.623,1.843l-0.781,0.925c-0.231,0.322-0.461,0.643-0.69,0.961&#10;&#9;&#9;&#9;c-0.461,0.637-0.935,1.261-1.304,1.927c-0.374,0.664-0.836,1.277-1.137,1.956c-0.335,0.669-0.664,1.324-0.982,1.961&#10;&#9;&#9;&#9;c-0.509,1.341-1.112,2.597-1.462,3.849c-0.208,0.62-0.408,1.215-0.598,1.78c-0.158,0.577-0.309,1.125-0.45,1.639&#10;&#9;&#9;&#9;c-0.153,0.519-0.283,1.009-0.433,1.465c-0.113,0.471-0.217,0.902-0.311,1.293c-0.175,0.782-0.368,1.394-0.475,1.813&#10;&#9;&#9;&#9;C247.468,74.401,247.402,74.624,247.402,74.624z"/>
	</g>
	<g id="Tail_2" opacity="0.12">
		
			<radialGradient id="SVGID_10_" cx="259.7397" cy="45.375" r="22.3752" gradientTransform="matrix(1 0 0 1.0098 0 1.2504)" gradientUnits="userSpaceOnUse">
			<stop offset="0"/>
			<stop offset="0.73"/>
			<stop offset="1"/>
		</radialGradient>
		<path fill="url(#SVGID_10_)" d="M242.931,72.32c0,0-0.032-1.011-0.089-2.78c-0.014-0.442-0.029-0.932-0.046-1.465&#10;&#9;&#9;&#9;c0.009-0.535,0.053-1.119,0.082-1.743c0.082-1.244,0.089-2.677,0.333-4.192c0.099-0.765,0.202-1.562,0.309-2.387&#10;&#9;&#9;&#9;c0.1-0.828,0.323-1.66,0.488-2.532c0.195-0.864,0.329-1.774,0.61-2.664c0.267-0.896,0.54-1.812,0.817-2.743&#10;&#9;&#9;&#9;c0.245-0.946,0.664-1.846,1.007-2.791c0.367-0.936,0.706-1.901,1.189-2.809c0.455-0.925,0.913-1.856,1.374-2.792&#10;&#9;&#9;&#9;c0.535-0.898,1.072-1.801,1.609-2.703c0.502-0.93,1.162-1.754,1.749-2.63c0.604-0.863,1.176-1.753,1.869-2.538&#10;&#9;&#9;&#9;c0.67-0.803,1.315-1.626,2.008-2.39c0.729-0.729,1.484-1.417,2.219-2.102c0.732-0.688,1.556-1.246,2.354-1.792&#10;&#9;&#9;&#9;c0.811-0.53,1.548-1.125,2.394-1.514c0.814-0.434,1.621-0.826,2.391-1.214c0.76-0.406,1.58-0.634,2.327-0.914&#10;&#9;&#9;&#9;c0.753-0.27,1.481-0.503,2.169-0.722c0.716-0.15,1.382-0.315,2.021-0.423c0.631-0.115,1.222-0.223,1.769-0.323&#10;&#9;&#9;&#9;c0.547-0.083,1.071-0.072,1.528-0.106c1.846-0.079,2.878-0.03,2.878-0.03l0.093,0.491c0,0-0.929,0.522-2.515,1.273&#10;&#9;&#9;&#9;c-0.803,0.34-1.733,0.86-2.78,1.452c-0.521,0.301-1.088,0.572-1.672,0.881c-0.561,0.368-1.143,0.754-1.759,1.129&#10;&#9;&#9;&#9;c-1.257,0.703-2.488,1.669-3.828,2.592c-0.341,0.222-0.671,0.468-0.987,0.747c-0.325,0.262-0.654,0.527-0.987,0.796&#10;&#9;&#9;&#9;c-0.647,0.558-1.396,1.011-2.024,1.646c-0.675,0.576-1.354,1.17-2.077,1.738c-0.671,0.63-1.351,1.268-2.035,1.911&#10;&#9;&#9;&#9;c-0.719,0.618-1.328,1.351-1.967,2.066c-0.636,0.718-1.295,1.43-1.836,2.232c-0.564,0.788-1.128,1.576-1.69,2.361&#10;&#9;&#9;&#9;c-0.499,0.831-0.995,1.659-1.487,2.48c-0.527,0.806-0.901,1.684-1.342,2.52c-0.41,0.849-0.896,1.657-1.214,2.521&#10;&#9;&#9;&#9;c-0.353,0.853-0.699,1.691-1.038,2.511c-0.354,0.818-0.565,1.665-0.856,2.464c-0.255,0.81-0.567,1.584-0.756,2.363&#10;&#9;&#9;&#9;c-0.196,0.778-0.386,1.53-0.568,2.252c-0.413,1.445-0.576,2.79-0.8,3.984c-0.1,0.599-0.211,1.157-0.284,1.682&#10;&#9;&#9;&#9;c-0.056,0.53-0.108,1.018-0.154,1.458c-0.188,1.76-0.295,2.765-0.295,2.765L242.931,72.32z"/>
	</g>
	<g id="Tail_1" opacity="0.15">
		
			<radialGradient id="SVGID_11_" cx="255.1709" cy="40.5034" r="22.4745" gradientTransform="matrix(1 0 0 1.0188 0 2.399)" gradientUnits="userSpaceOnUse">
			<stop offset="0"/>
			<stop offset="0.73"/>
			<stop offset="1"/>
		</radialGradient>
		<path fill="url(#SVGID_11_)" d="M240.188,69.443c0,0-0.105-0.997-0.249-2.756c-0.046-0.886-0.134-1.98-0.127-3.218&#10;&#9;&#9;&#9;c-0.025-1.243-0.005-2.648,0.075-4.184c0.093-1.534,0.236-3.2,0.474-4.959c0.237-1.76,0.574-3.61,1.031-5.509&#10;&#9;&#9;&#9;c0.444-1.902,0.993-3.861,1.717-5.803c0.689-1.956,1.556-3.893,2.502-5.807c0.947-1.914,2.013-3.794,3.155-5.621&#10;&#9;&#9;&#9;c1.136-1.831,2.479-3.53,3.981-4.99c1.5-1.462,3.209-2.635,4.923-3.556c1.696-0.953,3.463-1.583,5.096-2.034&#10;&#9;&#9;&#9;c1.656-0.416,3.197-0.642,4.574-0.65c0.68-0.035,1.322,0.002,1.909,0.055c0.586,0.044,1.119,0.123,1.598,0.219&#10;&#9;&#9;&#9;c0.953,0.16,1.679,0.393,2.167,0.572c0.487,0.169,0.739,0.278,0.739,0.278v0.8c0,0-0.242,0.115-0.696,0.33&#10;&#9;&#9;&#9;c-0.224,0.109-0.498,0.224-0.814,0.356c-0.316,0.138-0.669,0.344-1.063,0.512c-0.394,0.167-0.817,0.392-1.264,0.645&#10;&#9;&#9;&#9;c-0.453,0.225-0.929,0.48-1.422,0.776c-0.998,0.539-2.047,1.253-3.155,1.992c-1.085,0.799-2.237,1.625-3.373,2.62&#10;&#9;&#9;&#9;c-1.13,0.995-2.312,2.027-3.514,3.162c-1.207,1.123-2.529,2.247-3.789,3.538c-1.258,1.285-2.484,2.689-3.534,4.237&#10;&#9;&#9;&#9;c-1.045,1.548-2.048,3.15-2.899,4.814c-0.862,1.657-1.675,3.326-2.364,4.994c-0.715,1.659-1.279,3.32-1.812,4.905&#10;&#9;&#9;&#9;c-0.524,1.589-0.948,3.121-1.304,4.549c-0.338,1.431-0.653,2.753-0.864,3.938c-0.244,1.185-0.376,2.215-0.533,3.073&#10;&#9;&#9;&#9;c-0.247,1.734-0.366,2.736-0.366,2.736L240.188,69.443z"/>
	</g>
	<g id="Tail_3_1_" opacity="0.08">
		
			<radialGradient id="SVGID_12_" cx="261.4604" cy="48.7261" r="20.921" gradientTransform="matrix(1 0 0 1.0098 0 1.2504)" gradientUnits="userSpaceOnUse">
			<stop offset="0"/>
			<stop offset="0.73"/>
			<stop offset="1"/>
		</radialGradient>
		<path fill="url(#SVGID_12_)" d="M244.544,72.334c0,0-0.05-0.232-0.145-0.668c-0.077-0.435-0.227-1.075-0.346-1.886&#10;&#9;&#9;&#9;c-0.063-0.406-0.134-0.855-0.211-1.345c-0.043-0.501-0.058-1.046-0.087-1.635c-0.03-0.59-0.036-1.22-0.054-1.892&#10;&#9;&#9;&#9;c-0.003-0.668,0.091-1.347,0.138-2.076c0.074-0.723,0.112-1.489,0.256-2.263c0.164-0.775,0.333-1.576,0.507-2.399&#10;&#9;&#9;&#9;c0.142-0.84,0.473-1.644,0.747-2.493c0.292-0.842,0.562-1.723,0.988-2.548c0.392-0.842,0.807-1.697,1.249-2.55&#10;&#9;&#9;&#9;c0.499-0.817,1.013-1.643,1.552-2.462c0.254-0.422,0.551-0.812,0.861-1.194c0.302-0.389,0.609-0.776,0.925-1.158&#10;&#9;&#9;&#9;c0.316-0.38,0.621-0.774,0.95-1.144l1.035-1.063c1.364-1.445,2.906-2.668,4.419-3.87c0.789-0.551,1.582-1.079,2.372-1.59&#10;&#9;&#9;&#9;c0.774-0.538,1.588-0.973,2.392-1.396c0.809-0.411,1.568-0.88,2.372-1.214c0.797-0.338,1.577-0.669,2.336-0.992&#10;&#9;&#9;&#9;c1.511-0.654,3.021-1.046,4.372-1.487c1.366-0.404,2.655-0.643,3.779-0.888c1.12-0.257,2.136-0.339,2.955-0.447&#10;&#9;&#9;&#9;c0.818-0.111,1.475-0.144,1.913-0.189c0.443-0.029,0.68-0.044,0.68-0.044s-0.2,0.13-0.576,0.374&#10;&#9;&#9;&#9;c-0.38,0.227-0.925,0.593-1.635,0.991c-0.705,0.414-1.567,0.888-2.522,1.487c-0.955,0.598-2.063,1.185-3.216,1.911&#10;&#9;&#9;&#9;c-0.576,0.357-1.176,0.729-1.796,1.115c-0.624,0.374-1.269,0.751-1.894,1.2c-0.639,0.418-1.294,0.849-1.965,1.288&#10;&#9;&#9;&#9;c-0.667,0.44-1.31,0.935-1.982,1.409c-1.376,0.909-2.626,2.038-3.992,3.053c-1.238,1.157-2.587,2.225-3.728,3.489l-0.911,0.895&#10;&#9;&#9;&#9;c-0.288,0.312-0.549,0.643-0.825,0.962c-0.519,0.662-1.159,1.233-1.62,1.926c-0.483,0.676-0.984,1.334-1.487,1.984&#10;&#9;&#9;&#9;c-0.438,0.688-0.854,1.381-1.299,2.047c-0.475,0.652-0.771,1.382-1.162,2.053c-0.366,0.683-0.761,1.341-1.036,2.032&#10;&#9;&#9;&#9;c-0.309,0.683-0.608,1.348-0.899,1.991c-0.304,0.645-0.48,1.308-0.731,1.927c-0.229,0.623-0.481,1.225-0.668,1.801&#10;&#9;&#9;&#9;c-0.177,0.583-0.344,1.135-0.502,1.654c-0.17,0.524-0.316,1.021-0.481,1.482c-0.12,0.48-0.229,0.921-0.329,1.32&#10;&#9;&#9;&#9;c-0.185,0.798-0.385,1.423-0.497,1.851C244.613,72.106,244.544,72.334,244.544,72.334z"/>
	</g>
</g>

    <image overflow="visible" width="30" height="30" id="Sun_picture" transform="translate(315.8 205.25)"/>

</svg>