<?xml version="1.0" encoding="UTF-8" standalone="no"?>
<svg
   viewBox="0 0 780 560"
   font-family="Georgia, 'Times New Roman', serif"
   version="1.1"
   id="svg10"
   sodipodi:docname="traiettoria_parabolica.svg"
   inkscape:version="1.4.4 (dcaf3e7, 2026-05-05)"
   xmlns:inkscape="http://www.inkscape.org/namespaces/inkscape"
   xmlns:sodipodi="http://sodipodi.sourceforge.net/DTD/sodipodi-0.dtd"
   xmlns="http://www.w3.org/2000/svg"
   xmlns:svg="http://www.w3.org/2000/svg">
  <sodipodi:namedview
     id="namedview10"
     pagecolor="#ffffff"
     bordercolor="#000000"
     borderopacity="0.25"
     inkscape:showpageshadow="2"
     inkscape:pageopacity="0.0"
     inkscape:pagecheckerboard="0"
     inkscape:deskcolor="#d1d1d1"
     inkscape:zoom="1.6178571"
     inkscape:cx="267.01987"
     inkscape:cy="143.39956"
     inkscape:window-width="3840"
     inkscape:window-height="2120"
     inkscape:window-x="-12"
     inkscape:window-y="-12"
     inkscape:window-maximized="1"
     inkscape:current-layer="svg10" />
  <rect
     x="0"
     y="0"
     width="780"
     height="560"
     fill="#FCFBF8"
     id="rect1" />
  <line
     x1="423.60"
     y1="70"
     x2="423.60"
     y2="540"
     stroke="#3E8E8A"
     stroke-width="1.4"
     stroke-dasharray="5,4"
     id="line1" />
  <text
     x="413.60"
     y="90"
     font-size="13"
     fill="#2C6E6B"
     text-anchor="end"
     id="text2">direttrice</text>
  <line
     x1="361.60"
     y1="300.00"
     x2="746.00"
     y2="300.00"
     stroke="#8A8577"
     stroke-width="1"
     stroke-dasharray="3,3"
     id="line2" />
  <polyline
     points="-201.25,775.68 -162.09,764.32 -125.50,753.44 -91.26,743.02 -59.19,733.03 -29.09,723.45 -0.81,714.24 25.79,705.39 50.84,696.87 74.46,688.66 96.77,680.76 117.84,673.13 137.78,665.77 156.66,658.66 174.55,651.79 191.53,645.14 207.65,638.71 222.98,632.48 237.55,626.45 251.43,620.60 264.65,614.92 277.26,609.41 289.29,604.07 300.77,598.87 311.74,593.82 322.24,588.91 332.28,584.13 341.89,579.48 351.09,574.95 359.92,570.53 368.38,566.23 376.50,562.04 384.30,557.94 391.79,553.95 398.99,550.06 405.92,546.25 412.58,542.53 418.99,538.90 425.16,535.35 431.11,531.87 436.85,528.48 442.37,525.15 447.71,521.90 452.85,518.71 457.82,515.59 462.62,512.53 467.26,509.54 471.74,506.60 476.07,503.72 480.26,500.89 484.32,498.12 488.24,495.40 492.04,492.73 495.72,490.11 499.28,487.53 502.74,485.00 506.09,482.52 509.34,480.07 512.48,477.67 515.54,475.31 518.51,472.99 521.38,470.70 524.18,468.46 526.89,466.24 529.53,464.07 532.09,461.92 534.58,459.81 537.00,457.73 539.36,455.68 541.64,453.66 543.87,451.67 546.04,449.71 548.15,447.78 550.20,445.87 552.19,443.99 554.14,442.14 556.03,440.31 557.88,438.50 559.68,436.72 561.43,434.96 563.14,433.23 564.80,431.51 566.42,429.82 568.00,428.15 569.55,426.49 571.05,424.86 572.52,423.25 573.95,421.65 575.35,420.08 576.71,418.52 578.04,416.98 579.34,415.45 580.61,413.95 581.84,412.45 583.05,410.98 584.23,409.52 585.38,408.07 586.51,406.64 587.61,405.23 588.68,403.83 589.73,402.44 590.76,401.06 591.76,399.70 592.74,398.35 593.70,397.02 594.63,395.70 595.55,394.38 596.44,393.08 597.31,391.79 598.17,390.52 599.00,389.25 599.82,388.00 600.61,386.75 601.39,385.51 602.16,384.29 602.90,383.07 603.63,381.87 604.34,380.67 605.04,379.48 605.72,378.31 606.39,377.14 607.04,375.97 607.68,374.82 608.30,373.68 608.91,372.54 609.51,371.41 610.09,370.29 610.66,369.18 611.22,368.07 611.76,366.97 612.29,365.88 612.81,364.79 613.32,363.71 613.82,362.64 614.30,361.57 614.78,360.51 615.24,359.46 615.69,358.41 616.13,357.37 616.57,356.33 616.99,355.30 617.40,354.28 617.80,353.26 618.20,352.24 618.58,351.23 618.95,350.23 619.32,349.23 619.67,348.23 620.02,347.24 620.36,346.25 620.69,345.27 621.01,344.29 621.32,343.32 621.63,342.35 621.92,341.38 622.21,340.42 622.49,339.46 622.76,338.51 623.03,337.55 623.29,336.61 623.54,335.66 623.78,334.72 624.02,333.78 624.25,332.84 624.47,331.91 624.68,330.98 624.89,330.05 625.09,329.13 625.28,328.21 625.47,327.29 625.65,326.37 625.82,325.46 625.99,324.54 626.15,323.63 626.31,322.72 626.46,321.82 626.60,320.91 626.73,320.01 626.86,319.11 626.98,318.21 627.10,317.31 627.21,316.41 627.32,315.52 627.42,314.63 627.51,313.73 627.60,312.84 627.68,311.95 627.75,311.06 627.82,310.17 627.88,309.29 627.94,308.40 627.99,307.51 628.04,306.63 628.08,305.74 628.11,304.86 628.14,303.97 628.16,303.09 628.18,302.21 628.19,301.32 628.20,300.44 628.20,299.56 628.19,298.68 628.18,297.79 628.16,296.91 628.14,296.03 628.11,295.14 628.08,294.26 628.04,293.37 627.99,292.49 627.94,291.60 627.88,290.71 627.82,289.83 627.75,288.94 627.68,288.05 627.60,287.16 627.51,286.27 627.42,285.37 627.32,284.48 627.21,283.59 627.10,282.69 626.98,281.79 626.86,280.89 626.73,279.99 626.60,279.09 626.46,278.18 626.31,277.28 626.15,276.37 625.99,275.46 625.82,274.54 625.65,273.63 625.47,272.71 625.28,271.79 625.09,270.87 624.89,269.95 624.68,269.02 624.47,268.09 624.25,267.16 624.02,266.22 623.78,265.28 623.54,264.34 623.29,263.39 623.03,262.45 622.76,261.49 622.49,260.54 622.21,259.58 621.92,258.62 621.63,257.65 621.32,256.68 621.01,255.71 620.69,254.73 620.36,253.75 620.02,252.76 619.67,251.77 619.32,250.77 618.95,249.77 618.58,248.77 618.20,247.76 617.80,246.74 617.40,245.72 616.99,244.70 616.57,243.67 616.13,242.63 615.69,241.59 615.24,240.54 614.78,239.49 614.30,238.43 613.82,237.36 613.32,236.29 612.81,235.21 612.29,234.12 611.76,233.03 611.22,231.93 610.66,230.82 610.09,229.71 609.51,228.59 608.91,227.46 608.30,226.32 607.68,225.18 607.04,224.03 606.39,222.86 605.72,221.69 605.04,220.52 604.34,219.33 603.63,218.13 602.90,216.93 602.16,215.71 601.39,214.49 600.61,213.25 599.82,212.00 599.00,210.75 598.17,209.48 597.31,208.21 596.44,206.92 595.55,205.62 594.63,204.30 593.70,202.98 592.74,201.65 591.76,200.30 590.76,198.94 589.73,197.56 588.68,196.17 587.61,194.77 586.51,193.36 585.38,191.93 584.23,190.48 583.05,189.02 581.84,187.55 580.61,186.05 579.34,184.55 578.04,183.02 576.71,181.48 575.35,179.92 573.95,178.35 572.52,176.75 571.05,175.14 569.55,173.51 568.00,171.85 566.42,170.18 564.80,168.49 563.14,166.77 561.43,165.04 559.68,163.28 557.88,161.50 556.03,159.69 554.14,157.86 552.19,156.01 550.20,154.13 548.15,152.22 546.04,150.29 543.87,148.33 541.64,146.34 539.36,144.32 537.00,142.27 534.58,140.19 532.09,138.08 529.53,135.93 526.89,133.76 524.18,131.54 521.38,129.30 518.51,127.01 515.54,124.69 512.48,122.33 509.34,119.93 506.09,117.48 502.74,115.00 499.28,112.47 495.72,109.89 492.04,107.27 488.24,104.60 484.32,101.88 480.26,99.11 476.07,96.28 471.74,93.40 467.26,90.46 462.62,87.47 457.82,84.41 452.85,81.29 447.71,78.10 442.37,74.85 436.85,71.52 431.11,68.13 425.16,64.65 418.99,61.10 412.58,57.47 405.92,53.75 398.99,49.94 391.79,46.05 384.30,42.06 376.50,37.96 368.38,33.77 359.92,29.47 351.09,25.05 341.89,20.52 332.28,15.87 322.24,11.09 311.74,6.18 300.77,1.13 289.29,-4.07 277.26,-9.41 264.65,-14.92 251.43,-20.60 237.55,-26.45 222.98,-32.48 207.65,-38.71 191.53,-45.14 174.55,-51.79 156.66,-58.66 137.78,-65.77 117.84,-73.13 96.77,-80.76 74.46,-88.66 50.84,-96.87 25.79,-105.39 -0.81,-114.24 -29.09,-123.45 -59.19,-133.03 -91.26,-143.02 -125.50,-153.44 -162.09,-164.32 -201.25,-175.68"
     fill="none"
     stroke="#D9694F"
     stroke-width="2.6"
     id="polyline2" />
  <text
     x="560.00"
     y="328.00"
     font-size="14"
     fill="#4A4438"
     text-anchor="middle"
     id="text3">Sole (fuoco)</text>
  <circle
     cx="628.20"
     cy="300.00"
     r="4.5"
     fill="#B5482F"
     id="circle3" />
  <text
     x="661.8866"
     y="285.92276"
     font-size="14px"
     fill="#b5482f"
     text-anchor="middle"
     id="text4">perielio</text>
  <line
     x1="560.00"
     y1="300.00"
     x2="628.20"
     y2="300.00"
     stroke="#B5482F"
     stroke-width="1"
     stroke-dasharray="2,2"
     id="line4" />
  <circle
     cx="546.98"
     cy="448.85"
     r="6.5"
     fill="#3B3068"
     id="circle4" />
  <text
     x="532.98"
     y="434.85"
     font-size="14"
     fill="#3B3068"
     text-anchor="end"
     id="text5">corpo</text>
  <defs
     id="defs5">
    <marker
       id="arrow-v"
       markerWidth="9"
       markerHeight="9"
       refX="7"
       refY="3.5"
       orient="auto">
      <path
         d="M0,0 L8,3.5 L0,7 Z"
         fill="#7B4FA0"
         id="path5" />
    </marker>
  </defs>
  <line
     x1="546.98"
     y1="448.85"
     x2="598.59"
     y2="401.56"
     stroke="#7B4FA0"
     stroke-width="2.4"
     marker-end="url(#arrow-v)"
     id="line5" />
  <text
     x="610.59"
     y="397.56"
     font-size="16"
     fill="#7B4FA0"
     font-style="italic"
     id="text6">v</text>
  <g
     font-size="13"
     fill="#5A5548"
     id="g10">
    <line
       x1="40"
       y1="500"
       x2="70"
       y2="500"
       stroke="#D9694F"
       stroke-width="2.4"
       id="line8" />
    <text
       x="76"
       y="504"
       id="text8">traiettoria (e = 1)</text>
    <line
       x1="40"
       y1="520"
       x2="70"
       y2="520"
       stroke="#3E8E8A"
       stroke-width="1.4"
       stroke-dasharray="5,4"
       id="line9" />
    <text
       x="76"
       y="524"
       id="text9">direttrice</text>
    <line
       x1="260"
       y1="500"
       x2="290"
       y2="500"
       stroke="#7B4FA0"
       stroke-width="2.4"
       id="line10" />
    <text
       x="296"
       y="504"
       id="text10">vettore velocità (tangente)</text>
  </g>
  <circle
     cx="560.00"
     cy="300.00"
     r="10"
     fill="#E0932E"
     stroke="#A8631A"
     stroke-width="1.2"
     id="circle2" />
  <text
     x="201.21989"
     y="68.090981"
     font-size="19px"
     fill="#2a2618"
     text-anchor="middle"
     font-weight="bold"
     id="text1">Traiettoria parabolica (<tspan
   style="font-style:italic;font-variant:normal;font-weight:bold;font-stretch:normal;font-family:Georgia, 'Times New Roman', serif;-inkscape-font-specification:'Georgia, Times New Roman, serif Bold Italic'"
   id="tspan10">e</tspan> = 1)</text>
  <text
     x="200.92766"
     y="95.687302"
     font-size="19px"
     fill="#2a2618"
     text-anchor="middle"
     font-weight="bold"
     id="text1-4">in avvicinamento al perielio</text>
</svg>
